<svg xmlns="http://www.w3.org/2000/svg" xmlns:xlink="http://www.w3.org/1999/xlink"
     style="display:none" aria-hidden="true">
  <!--
    SVG Sprite — Contao Standard Theme
    Quelle: Heroicons v2 (MIT-Lizenz) https://heroicons.com
    Nutzung (dekorativ):  <svg aria-hidden="true" focusable="false"><use href="…/sprite.svg#icon-name"/></svg>
    Nutzung (informativ): <svg role="img" aria-labelledby="unique-id">
                            <title id="unique-id">Beschreibung</title>
                            <use href="…/sprite.svg#icon-name"/>
                          </svg>
    Empfehlung: Sprite über Twig-Macro einbinden, z.B. {{ theme_icon('home') }}
  -->

  <!-- home -->
  <symbol id="icon-home" viewBox="0 0 24 24" fill="none" stroke="currentColor"
          stroke-width="1.5" stroke-linecap="round" stroke-linejoin="round">
    <path d="m2.25 12 8.954-8.955a1.5 1.5 0 0 1 2.122 0L21.75 12M4.5 9.75v10.125c0 .621.504 1.125 1.125 1.125H9.75v-4.875c0-.621.504-1.125 1.125-1.125h2.25c.621 0 1.125.504 1.125 1.125V21h4.125c.621 0 1.125-.504 1.125-1.125V9.75M8.25 21h8.25"/>
  </symbol>

  <!-- search -->
  <symbol id="icon-search" viewBox="0 0 24 24" fill="none" stroke="currentColor"
          stroke-width="1.5" stroke-linecap="round" stroke-linejoin="round">
    <path d="m21 21-5.197-5.197m0 0A7.5 7.5 0 1 0 5.196 5.196a7.5 7.5 0 0 0 10.607 10.607z"/>
  </symbol>

  <!-- menu (Hamburger) -->
  <symbol id="icon-menu" viewBox="0 0 24 24" fill="none" stroke="currentColor"
          stroke-width="1.5" stroke-linecap="round" stroke-linejoin="round">
    <path d="M3.75 6.75h16.5M3.75 12h16.5m-16.5 5.25h16.5"/>
  </symbol>

  <!-- x (Schließen) -->
  <symbol id="icon-x" viewBox="0 0 24 24" fill="none" stroke="currentColor"
          stroke-width="1.5" stroke-linecap="round" stroke-linejoin="round">
    <path d="M6 18 18 6M6 6l12 12"/>
  </symbol>

  <!-- chevron-down -->
  <symbol id="icon-chevron-down" viewBox="0 0 24 24" fill="none" stroke="currentColor"
          stroke-width="1.5" stroke-linecap="round" stroke-linejoin="round">
    <path d="m19.5 8.25-7.5 7.5-7.5-7.5"/>
  </symbol>

  <!-- chevron-right -->
  <symbol id="icon-chevron-right" viewBox="0 0 24 24" fill="none" stroke="currentColor"
          stroke-width="1.5" stroke-linecap="round" stroke-linejoin="round">
    <path d="m8.25 4.5 7.5 7.5-7.5 7.5"/>
  </symbol>

  <!-- chevron-left -->
  <symbol id="icon-chevron-left" viewBox="0 0 24 24" fill="none" stroke="currentColor"
          stroke-width="1.5" stroke-linecap="round" stroke-linejoin="round">
    <path d="M15.75 19.5 8.25 12l7.5-7.5"/>
  </symbol>

  <!-- arrow-right -->
  <symbol id="icon-arrow-right" viewBox="0 0 24 24" fill="none" stroke="currentColor"
          stroke-width="1.5" stroke-linecap="round" stroke-linejoin="round">
    <path d="M13.5 4.5 21 12m0 0-7.5 7.5M21 12H3"/>
  </symbol>

  <!-- arrow-left -->
  <symbol id="icon-arrow-left" viewBox="0 0 24 24" fill="none" stroke="currentColor"
          stroke-width="1.5" stroke-linecap="round" stroke-linejoin="round">
    <path d="M10.5 19.5 3 12m0 0 7.5-7.5M3 12h18"/>
  </symbol>

  <!-- external-link -->
  <symbol id="icon-external-link" viewBox="0 0 24 24" fill="none" stroke="currentColor"
          stroke-width="1.5" stroke-linecap="round" stroke-linejoin="round">
    <path d="M13.5 6H5.25A2.25 2.25 0 0 0 3 8.25v10.5A2.25 2.25 0 0 0 5.25 21h10.5A2.25 2.25 0 0 0 18 18.75V10.5m-10.5 6L21 3m0 0h-5.25M21 3v5.25"/>
  </symbol>

  <!-- download -->
  <symbol id="icon-download" viewBox="0 0 24 24" fill="none" stroke="currentColor"
          stroke-width="1.5" stroke-linecap="round" stroke-linejoin="round">
    <path d="M3 16.5v2.25A2.25 2.25 0 0 0 5.25 21h13.5A2.25 2.25 0 0 0 21 18.75V16.5M16.5 12 12 16.5m0 0L7.5 12m4.5 4.5V3"/>
  </symbol>

  <!-- document -->
  <symbol id="icon-document" viewBox="0 0 24 24" fill="none" stroke="currentColor"
          stroke-width="1.5" stroke-linecap="round" stroke-linejoin="round">
    <path d="M19.5 14.25v-2.625a3.375 3.375 0 0 0-3.375-3.375h-1.5A1.125 1.125 0 0 1 13.5 7.125v-1.5a3.375 3.375 0 0 0-3.375-3.375H8.25m2.25 0H5.625c-.621 0-1.125.504-1.125 1.125v17.25c0 .621.504 1.125 1.125 1.125h12.75c.621 0 1.125-.504 1.125-1.125V11.25a9 9 0 0 0-9-9z"/>
  </symbol>

  <!-- mail -->
  <symbol id="icon-mail" viewBox="0 0 24 24" fill="none" stroke="currentColor"
          stroke-width="1.5" stroke-linecap="round" stroke-linejoin="round">
    <path d="M21.75 6.75v10.5a2.25 2.25 0 0 1-2.25 2.25h-15a2.25 2.25 0 0 1-2.25-2.25V6.75m19.5 0A2.25 2.25 0 0 0 19.5 4.5h-15a2.25 2.25 0 0 0-2.25 2.25m19.5 0v.243a2.25 2.25 0 0 1-1.07 1.916l-7.5 4.615a2.25 2.25 0 0 1-2.36 0L3.32 8.91a2.25 2.25 0 0 1-1.07-1.916V6.75"/>
  </symbol>

  <!-- phone -->
  <symbol id="icon-phone" viewBox="0 0 24 24" fill="none" stroke="currentColor"
          stroke-width="1.5" stroke-linecap="round" stroke-linejoin="round">
    <path d="M2.25 6.338c0-1.17.787-2.216 1.929-2.45l3.236-.675A1.5 1.5 0 0 1 8.93 4.2l1.566 3.63a1.5 1.5 0 0 1-.433 1.72L9 10.5a11.046 11.046 0 0 0 4.5 4.5l.95-1.063a1.5 1.5 0 0 1 1.72-.433l3.63 1.566a1.5 1.5 0 0 1 .997 1.515l-.675 3.236c-.235 1.142-1.28 1.929-2.451 1.929-9.138 0-16.5-7.363-16.5-16.5z"/>
  </symbol>

  <!-- map-pin -->
  <symbol id="icon-map-pin" viewBox="0 0 24 24" fill="none" stroke="currentColor"
          stroke-width="1.5" stroke-linecap="round" stroke-linejoin="round">
    <path d="M15 10.5a3 3 0 1 1-6 0 3 3 0 0 1 6 0z"/>
    <path d="M19.5 10.5c0 7.142-7.5 11.25-7.5 11.25S4.5 17.642 4.5 10.5a7.5 7.5 0 1 1 15 0z"/>
  </symbol>

  <!-- calendar -->
  <symbol id="icon-calendar" viewBox="0 0 24 24" fill="none" stroke="currentColor"
          stroke-width="1.5" stroke-linecap="round" stroke-linejoin="round">
    <path d="M6.75 3v2.25M17.25 3v2.25M3 18.75V7.5a2.25 2.25 0 0 1 2.25-2.25h13.5A2.25 2.25 0 0 1 21 7.5v11.25m-18 0A2.25 2.25 0 0 0 5.25 21h13.5A2.25 2.25 0 0 0 21 18.75m-18 0v-7.5A2.25 2.25 0 0 1 5.25 9h13.5A2.25 2.25 0 0 1 21 11.25v7.5"/>
  </symbol>

  <!-- user -->
  <symbol id="icon-user" viewBox="0 0 24 24" fill="none" stroke="currentColor"
          stroke-width="1.5" stroke-linecap="round" stroke-linejoin="round">
    <path d="M15.75 6a3.75 3.75 0 1 1-7.5 0 3.75 3.75 0 0 1 7.5 0zM4.501 20.118a7.5 7.5 0 0 1 14.998 0A17.933 17.933 0 0 1 12 21.75c-2.676 0-5.216-.584-7.499-1.632z"/>
  </symbol>

  <!-- check -->
  <symbol id="icon-check" viewBox="0 0 24 24" fill="none" stroke="currentColor"
          stroke-width="1.5" stroke-linecap="round" stroke-linejoin="round">
    <path d="m4.5 12.75 6 6 9-13.5"/>
  </symbol>

  <!-- information-circle -->
  <symbol id="icon-info" viewBox="0 0 24 24" fill="none" stroke="currentColor"
          stroke-width="1.5" stroke-linecap="round" stroke-linejoin="round">
    <path d="m11.25 11.25.041-.02a.75.75 0 0 1 1.063.852l-.708 2.836a.75.75 0 0 0 1.063.853l.041-.021M21 12a9 9 0 1 1-18 0 9 9 0 0 1 18 0zm-9-3.75h.008v.008H12V8.25z"/>
  </symbol>

  <!-- exclamation-triangle (warning) -->
  <symbol id="icon-warning" viewBox="0 0 24 24" fill="none" stroke="currentColor"
          stroke-width="1.5" stroke-linecap="round" stroke-linejoin="round">
    <path d="M12 9v3.75m-9.303 3.376c-.866 1.5.217 3.374 1.948 3.374h14.71c1.73 0 2.813-1.874 1.948-3.374L13.949 3.378c-.866-1.5-3.032-1.5-3.898 0L2.697 16.126zM12 15.75h.008v.008H12v-.008z"/>
  </symbol>

  <!-- print -->
  <symbol id="icon-print" viewBox="0 0 24 24" fill="none" stroke="currentColor"
          stroke-width="1.5" stroke-linecap="round" stroke-linejoin="round">
    <path d="M6.72 13.829c-.24.03-.48.062-.72.096m.72-.096a42.415 42.415 0 0 1 10.56 0m-10.56 0L6.34 18m10.94-4.171c.24.03.48.062.72.096m-.72-.096L17.66 18m0 0 .229 2.523a1.125 1.125 0 0 1-1.12 1.227H7.231c-.662 0-1.18-.568-1.12-1.227L6.34 18m11.318 0h1.091A2.25 2.25 0 0 0 21 15.75V9.456c0-1.081-.768-2.015-1.837-2.175a48.055 48.055 0 0 0-1.913-.247M6.34 18H5.25A2.25 2.25 0 0 1 3 15.75V9.456c0-1.081.768-2.015 1.837-2.175a48.041 48.041 0 0 1 1.913-.247m10.5 0a48.536 48.536 0 0 0-10.5 0m10.5 0V3.375c0-.621-.504-1.125-1.125-1.125h-8.25c-.621 0-1.125.504-1.125 1.125v3.659M18 10.5h.008v.008H18V10.5zm-3 0h.008v.008H15V10.5z"/>
  </symbol>

</svg>
